<?xml version="1.0" standalone="no"?>
<!DOCTYPE svg PUBLIC "-//W3C//DTD SVG 20010904//EN"
 "http://www.w3.org/TR/2001/REC-SVG-20010904/DTD/svg10.dtd">
<svg version="1.0" xmlns="http://www.w3.org/2000/svg"
 width="864.000000pt" height="864.000000pt" viewBox="0 0 864.000000 864.000000"
 preserveAspectRatio="xMidYMid meet">
<metadata>
Created by potrace 1.11, written by Peter Selinger 2001-2013
</metadata>
<g transform="translate(0.000000,864.000000) scale(0.100000,-0.100000)"
fill="#000000" stroke="none">
<path d="M912 8620 c-4 -3 -7 -1942 -7 -4310 l0 -4305 2005 0 c1103 0 2050 4
2105 8 161 13 282 26 305 32 8 2 42 6 75 10 33 3 67 8 75 10 8 2 31 7 50 9 19
3 46 8 60 11 14 3 41 8 60 11 50 8 262 61 345 86 39 12 75 22 80 24 6 1 48 16
95 34 47 18 103 39 124 47 85 31 285 132 413 209 75 45 258 180 298 219 13 14
26 25 29 25 6 0 157 152 196 196 14 16 53 67 88 114 34 47 66 90 70 95 20 27
92 159 126 230 21 44 42 88 47 97 5 10 9 27 9 37 0 11 4 22 9 26 8 4 33 77 46
130 1 6 5 17 8 25 4 8 9 26 11 40 3 14 5 25 6 25 1 0 3 9 5 20 2 11 6 31 9 45
4 14 9 41 12 60 3 19 8 49 11 65 31 178 36 542 9 740 -12 81 -19 125 -32 185
-8 36 -17 76 -20 90 -7 38 -62 208 -86 270 -51 129 -180 357 -253 449 -129
160 -272 305 -366 372 -19 13 -42 31 -52 40 -9 9 -30 22 -45 30 -15 8 -29 17
-32 20 -3 4 -40 27 -84 53 -145 86 -333 168 -491 216 -38 12 -77 24 -85 27 -8
3 -24 8 -35 10 -11 2 -38 9 -60 15 -22 6 -47 12 -55 13 -8 2 -51 10 -95 19
-44 8 -92 17 -107 19 -44 5 -42 14 4 23 49 9 57 11 61 14 1 1 10 3 20 5 36 7
215 68 295 101 316 130 608 354 792 607 32 45 63 87 68 92 4 6 19 30 32 55 14
25 27 47 30 50 11 10 98 196 110 235 7 22 16 45 21 50 4 6 12 29 18 50 5 22
16 65 25 95 8 30 17 66 20 80 3 14 8 36 11 50 3 14 8 41 11 60 3 19 7 46 9 60
24 140 24 527 1 650 -2 14 -7 44 -10 67 -6 50 -11 74 -37 178 -19 76 -27 103
-45 150 -4 11 -8 25 -10 30 -9 34 -30 81 -39 87 -5 4 -6 8 -2 8 10 0 -86 187
-129 252 -19 27 -34 54 -34 58 0 5 -3 10 -7 12 -5 2 -27 28 -49 58 -87 116
-195 226 -324 330 -30 24 -60 50 -67 57 -6 8 -14 14 -17 13 -4 0 -39 22 -80
49 -102 69 -144 93 -276 157 -148 72 -143 69 -225 100 -122 45 -301 100 -390
120 -44 9 -230 45 -260 50 -184 28 -320 43 -465 49 -52 2 -95 5 -95 6 0 4
-3838 3 -3843 -1z m3768 -914 c69 -3 143 -8 165 -10 22 -3 60 -8 85 -10 53 -7
97 -13 165 -26 28 -5 62 -12 77 -14 15 -3 31 -7 36 -10 5 -3 24 -8 42 -11 116
-20 380 -132 505 -213 124 -80 259 -202 315 -282 13 -19 27 -37 31 -40 11 -8
84 -132 107 -183 49 -106 94 -271 109 -399 8 -75 8 -314 0 -373 -4 -27 -10
-66 -12 -85 -11 -74 -38 -180 -59 -232 -9 -20 -12 -38 -9 -42 4 -3 1 -6 -5 -6
-7 0 -12 -5 -12 -12 0 -19 -43 -108 -52 -108 -4 0 -8 -7 -8 -15 0 -42 -194
-274 -299 -358 -70 -56 -296 -193 -326 -197 -3 0 -24 -9 -47 -19 -47 -20 -164
-61 -188 -66 -8 -2 -28 -8 -45 -15 -16 -6 -31 -11 -33 -10 -1 1 -28 -4 -60
-11 -31 -6 -63 -12 -69 -12 -7 0 -13 -3 -13 -6 0 -3 -15 -6 -33 -7 -17 -1 -45
-4 -62 -7 -33 -6 -119 -18 -180 -25 -22 -2 -687 -6 -1477 -9 l-1436 -4 0 1410
0 1410 31 3 c58 6 2630 0 2757 -6z m246 -3738 c11 -3 56 -9 99 -13 43 -3 81
-8 84 -10 3 -2 31 -6 61 -9 30 -3 66 -8 80 -11 37 -8 121 -26 150 -31 14 -3
63 -16 110 -30 47 -14 94 -27 105 -29 11 -3 45 -14 75 -26 30 -11 68 -25 85
-31 89 -33 365 -185 395 -218 3 -3 28 -23 55 -45 98 -78 198 -186 272 -296 68
-98 156 -305 170 -394 2 -16 8 -43 13 -60 30 -104 33 -459 5 -585 -3 -14 -8
-41 -11 -60 -3 -19 -10 -50 -16 -68 -5 -18 -11 -41 -13 -50 -2 -9 -4 -18 -5
-19 -2 -2 -3 -6 -5 -10 -1 -5 -5 -17 -10 -28 -4 -11 -17 -42 -27 -70 -87 -226
-285 -452 -538 -615 -82 -52 -262 -140 -360 -174 -41 -15 -82 -29 -90 -32 -8
-3 -16 -5 -17 -5 -2 0 -33 -9 -70 -20 -102 -30 -257 -62 -358 -75 -27 -3 -57
-7 -65 -9 -14 -3 -82 -10 -198 -22 -26 -3 -714 -7 -1529 -9 l-1482 -3 0 1534
1 1535 1506 -3 c829 -2 1516 -6 1528 -9z"/>
</g>
</svg>
